<svg width="60" height="60" viewBox="0 0 60 60" fill="none" xmlns="http://www.w3.org/2000/svg">
<path d="M30 5.1001C16.25 5.1001 5 16.3251 5 30.1501C5 42.6501 14.15 53.0251 26.1 54.9001V37.4001H19.75V30.1501H26.1V24.6251C26.1 18.3501 29.825 14.9001 35.55 14.9001C38.275 14.9001 41.125 15.3751 41.125 15.3751V21.5501H37.975C34.875 21.5501 33.9 23.4751 33.9 25.4501V30.1501H40.85L39.725 37.4001H33.9V54.9001C39.791 53.9696 45.1555 50.9639 49.0247 46.4251C52.894 41.8866 55.0135 36.1141 55 30.1501C55 16.3251 43.75 5.1001 30 5.1001Z" fill="black"/>
</svg>
