<svg width="60" height="60" viewBox="0 0 60 60" fill="none" xmlns="http://www.w3.org/2000/svg">
<g clip-path="url(#clip0_8_10)">
<path fill-rule="evenodd" clip-rule="evenodd" d="M17.609 0.368188C12.7253 0.588538 8.49244 1.78253 5.07448 5.18606C1.64458 8.60747 0.465424 12.8571 0.244525 17.69C0.107209 20.7064 -0.695742 43.4949 1.63265 49.4712C3.20282 53.503 6.29532 56.603 10.364 58.1782C12.2626 58.9167 14.4298 59.4166 17.609 59.5625C44.1914 60.7655 54.0452 60.1106 58.2005 49.4712C58.9378 47.5774 59.4453 45.412 59.5856 42.2407C60.8006 15.5901 59.3887 9.81344 54.7558 5.18606C51.0811 1.52048 46.7586 -0.974762 17.609 0.368188ZM17.8537 54.2027C14.9432 54.0716 13.3641 53.5867 12.3104 53.1787C9.65957 52.1484 7.6685 50.1656 6.64461 47.5303C4.87145 42.9893 5.45954 21.4216 5.61776 17.9317C5.77298 14.5132 6.46552 11.389 8.87749 8.97707C11.8626 5.99933 15.7193 4.53997 41.9794 5.72512C45.4063 5.87995 48.5377 6.57107 50.9557 8.97707C53.9408 11.9548 55.4214 15.8412 54.2154 42.0005C54.0841 44.9038 53.5975 46.4792 53.1886 47.5303C50.487 54.4535 44.272 55.4146 17.8537 54.2027ZM42.269 14.0689C42.269 16.0401 43.872 17.6431 45.8512 17.6431C47.8303 17.6431 49.4363 16.0401 49.4363 14.0689C49.4363 12.0976 47.8303 10.4961 45.8512 10.4961C43.872 10.4961 42.269 12.0976 42.269 14.0689ZM14.588 29.9639C14.588 38.4087 21.4508 45.2554 29.9166 45.2554C38.3824 45.2554 45.2452 38.4087 45.2452 29.9639C45.2452 21.5191 38.3824 14.6768 29.9166 14.6768C21.4508 14.6768 14.588 21.5191 14.588 29.9639ZM19.9672 29.9639C19.9672 24.4849 24.421 20.0396 29.9166 20.0396C35.4122 20.0396 39.866 24.4849 39.866 29.9639C39.866 35.4459 35.4122 39.8926 29.9166 39.8926C24.421 39.8926 19.9672 35.4459 19.9672 29.9639Z" fill="black"/>
</g>
<defs>
<clipPath id="clip0_8_10">
<rect width="60" height="60" fill="white"/>
</clipPath>
</defs>
</svg>
