<svg width="60" height="61" viewBox="0 0 60 61" fill="none" xmlns="http://www.w3.org/2000/svg">
<g clip-path="url(#clip0_8_22)">
<path fill-rule="evenodd" clip-rule="evenodd" d="M23.9653 37.9014V21.066C29.9419 23.8783 34.5708 26.595 40.0454 29.524C35.53 32.0281 29.9419 34.8378 23.9653 37.9014ZM57.273 12.6929C56.2421 11.3346 54.485 10.2773 52.6143 9.92729C47.1158 8.88314 12.813 8.88017 7.31746 9.92729C5.81733 10.2085 4.48151 10.8883 3.334 11.9444C-1.50109 16.4321 0.0139985 40.4982 1.17944 44.3965C1.66952 46.0839 2.30307 47.3008 3.10095 48.0997C4.12893 49.1557 5.5364 49.8829 7.15307 50.209C11.6804 51.1455 35.0041 51.6691 52.5186 50.3497C54.1323 50.0684 55.5607 49.3178 56.6873 48.2168C61.1578 43.7471 60.853 18.3295 57.273 12.6929Z" fill="black"/>
</g>
<defs>
<clipPath id="clip0_8_22">
<rect width="60" height="60" fill="white" transform="translate(0 0.143066)"/>
</clipPath>
</defs>
</svg>
